# xmcd CD database file
#
# Track frame offsets:
#	150
#	14001
#	26642
#	46046
#	64073
#	77247
#	98903
#	109220
#	120658
#	134671
#	149414
#	162157
#	173227
#	193317
#	210493
#	225202
#	243712
#	256787
#	269029
#	281921
#
# Disc length: 3924 seconds
#
# Revision: 1
# Processed by: cddbd v1.5.2PL0 Copyright (c) Steve Scherf et al.
# Submitted via: CDex 1.97
#
DISCID=2c0f5214
DTITLE=Various Artist - Now 100 Hits Country - Disc 5 of 5
DYEAR=2020
DGENRE=Country
TTITLE0=Glen Campbell - Wichita Lineman
TTITLE1=Don Williams - You're My Best Friend
TTITLE2=Kenny Rogers - Coward Of The County
TTITLE3=Indigo Girls - Closer To Fine
TTITLE4=Tammy Wynette - D-I-V-O-R-C-E
TTITLE5=Nitty Gritty Dirt Band feat. Mother Maybelle Carter - Will The Circle Be Unbroken
TTITLE6=Kris Kristofferson - Help Me Make It Through The Night
TTITLE7=The Byrds - You Ain't Going Nowhere
TTITLE8=The Soggy Bottom Boys feat. Dan Tyminski - I Am A Man Of Constant Sorrow
TTITLE9=Bobbie Gentry - Fancy
TTITLE10=Elvis Presley - Burning Love
TTITLE11=Alan Jackson - Chattahoochee
TTITLE12=Janis Joplin - Me And Bobby McGee
TTITLE13=Dr. Hook and The Medicine Show - Sylvia's Mother
TTITLE14=George Jones - He Stopped Loving Her Today
TTITLE15=Juice Newton - Angel Of The Morning
TTITLE16=Crystal Gayle - Talking In Your Sleep
TTITLE17=Glen Campbell - By The Time I Get To Phoenix
TTITLE18=Jim Reeves - Distant Drums
TTITLE19=Hank Williams - I'm So Lonesome I Could Cry
EXTD=YEAR: 2020
EXTT0=
EXTT1=
EXTT2=
EXTT3=
EXTT4=
EXTT5=
EXTT6=
EXTT7=
EXTT8=
EXTT9=
EXTT10=
EXTT11=
EXTT12=
EXTT13=
EXTT14=
EXTT15=
EXTT16=
EXTT17=
EXTT18=
EXTT19=
PLAYORDER=
